# xmcd
#
# Track frame offsets:
#	150
#	8208
#	16953
#	27557
#	38320
#	49176
#	61972
#	71237
#	81967
#	91803
#	102205
#	116277
#	127470
#	137920
#	148895
#	160890
#	171584
#	179109
#
# Disc length: 2543 seconds
#
# Revision: 0
# Processed by: cddbd v1.5.2PL0 Copyright (c) Steve Scherf et al.
# Submitted via: EZCDAudioConverter 3.1.0.1
#
DISCID=0709ed12
DTITLE=VA_ - Stompin Volume Two
DYEAR=1900
DGENRE=Rhythm and Blues
TTITLE0=Jesse and Buzzy - Goin' Back To New Orleans
TTITLE1=OkJ L  Smith - Got My Top Let Down
TTITLE2=Howlin' Wolf - Hidden Charms
TTITLE3=Bobo Jenkins - Nothing But Love
TTITLE4=Lord Lebby - Caldonia
TTITLE5=Big Walter - Gamblin' Woman
TTITLE6=Square Walton - Bad Hangover
TTITLE7=Papa Lightfoot - Jump The Boogie
TTITLE8=Pigmeat Peterson - Loud Mouth Lucy
TTITLE9=Cousin Leroy - I'm Lonesome
TTITLE10=The Sly Fox - My Four Women
TTITLE11=Little Red Walter - Aw! Shucks Baby
TTITLE12=Lloyd Price - The Chicken And The Bop
TTITLE13=Young John Watson - I Got Eyes
TTITLE14=Junior Wells - Lord, Lord
TTITLE15=Ernest Brooks - Talkin' Off The Wall
TTITLE16=Slim Harpo - Bobby Sox Baby
TTITLE17=Mojo Watson - I'm The Only One
EXTD=
EXTT0=
EXTT1=
EXTT2=
EXTT3=
EXTT4=
EXTT5=
EXTT6=
EXTT7=
EXTT8=
EXTT9=
EXTT10=
EXTT11=
EXTT12=
EXTT13=
EXTT14=
EXTT15=
EXTT16=
EXTT17=
PLAYORDER=
